REM DIRINDEX 1\2\4\8,1\2\4\9,1\2\4\10,1\2\5\11,1\2\5\12,1\2\5\13,1\2\5\14,1\2\5\15,1\3\6\16,1\3\6\17,1\3\6\18,1\3\7\19,1\3\7\20,1\3\7\21,1\3\7\22,1\3\7\23
REM DIRNAME "folder01","folder02","folder03","folder04","folder05","folder06","folder07","folder08","folder09","folder10","folder11","folder12","folder13","folder14","folder15","folder16","folder17","folder18","folder19","folder20","folder21","folder22","folder23"
TITLE ""
FILE "LR_black_phrase_C02.mp3" MP3
  TRACK 01 AUDIO
    TITLE "0:"
    INDEX 01 00:00:00
  TRACK 02 AUDIO
    TITLE "19:cjc171_14101"
    INDEX 01 00:00:14
  TRACK 03 AUDIO
    TITLE "0:"
    INDEX 01 00:01:31
  TRACK 04 AUDIO
    TITLE "20:cjc171_14102"
    INDEX 01 00:01:72
  TRACK 05 AUDIO
    TITLE "0:"
    INDEX 01 00:04:10
  TRACK 06 AUDIO
    TITLE "21:cjc171_14103"
    INDEX 01 00:05:06
  TRACK 07 AUDIO
    TITLE "0:"
    INDEX 01 00:06:48
  TRACK 08 AUDIO
    TITLE "22:cjc171_14104"
    INDEX 01 00:07:08
  TRACK 09 AUDIO
    TITLE "0:"
    INDEX 01 00:09:09
  TRACK 10 AUDIO
    TITLE "23:cjc171_14105"
    INDEX 01 00:09:39
  TRACK 11 AUDIO
    TITLE "0:"
    INDEX 01 00:11:39
  TRACK 12 AUDIO
    TITLE "19:cjc171_14106"
    INDEX 01 00:12:45
  TRACK 13 AUDIO
    TITLE "0:"
    INDEX 01 00:13:68
  TRACK 14 AUDIO
    TITLE "20:cjc171_14107"
    INDEX 01 00:14:32
  TRACK 15 AUDIO
    TITLE "0:"
    INDEX 01 00:16:60
  TRACK 16 AUDIO
    TITLE "21:cjc171_14108"
    INDEX 01 00:17:60
  TRACK 17 AUDIO
    TITLE "0:"
    INDEX 01 00:20:19
  TRACK 18 AUDIO
    TITLE "22:cjc171_14109"
    INDEX 01 00:20:62
  TRACK 19 AUDIO
    TITLE "0:"
    INDEX 01 00:23:21
  TRACK 20 AUDIO
    TITLE "23:cjc171_14110"
    INDEX 01 00:23:51
  TRACK 21 AUDIO
    TITLE "0:"
    INDEX 01 00:26:12
  TRACK 22 AUDIO
    TITLE "19:cjc171_14111"
    INDEX 01 00:27:15
  TRACK 23 AUDIO
    TITLE "0:"
    INDEX 01 00:28:30
  TRACK 24 AUDIO
    TITLE "20:cjc171_14112"
    INDEX 01 00:28:71
  TRACK 25 AUDIO
    TITLE "0:"
    INDEX 01 00:31:38
  TRACK 26 AUDIO
    TITLE "21:cjc171_14113"
    INDEX 01 00:32:38
  TRACK 27 AUDIO
    TITLE "0:"
    INDEX 01 00:34:72
  TRACK 28 AUDIO
    TITLE "22:cjc171_14114"
    INDEX 01 00:35:30
  TRACK 29 AUDIO
    TITLE "0:"
    INDEX 01 00:37:27
  TRACK 30 AUDIO
    TITLE "23:cjc171_14115"
    INDEX 01 00:37:53
  TRACK 31 AUDIO
    TITLE "0:"
    INDEX 01 00:39:51
  TRACK 32 AUDIO
    TITLE "19:cjc171_14116"
    INDEX 01 00:40:57
  TRACK 33 AUDIO
    TITLE "0:"
    INDEX 01 00:42:07
  TRACK 34 AUDIO
    TITLE "20:cjc171_14117"
    INDEX 01 00:42:44
  TRACK 35 AUDIO
    TITLE "0:"
    INDEX 01 00:44:74
  TRACK 36 AUDIO
    TITLE "21:cjc171_14118"
    INDEX 01 00:46:01
  TRACK 37 AUDIO
    TITLE "0:"
    INDEX 01 00:48:43
  TRACK 38 AUDIO
    TITLE "22:cjc171_14119"
    INDEX 01 00:49:03
  TRACK 39 AUDIO
    TITLE "0:"
    INDEX 01 00:50:67
  TRACK 40 AUDIO
    TITLE "23:cjc171_14120"
    INDEX 01 00:51:19
  TRACK 41 AUDIO
    TITLE "0:"
    INDEX 01 00:53:10
  TRACK 42 AUDIO
    TITLE "19:cjc171_14121"
    INDEX 01 00:54:14
  TRACK 43 AUDIO
    TITLE "0:"
    INDEX 01 00:55:27
  TRACK 44 AUDIO
    TITLE "20:cjc171_14122"
    INDEX 01 00:55:62
  TRACK 45 AUDIO
    TITLE "0:"
    INDEX 01 00:58:51
  TRACK 46 AUDIO
    TITLE "21:cjc171_14123"
    INDEX 01 00:59:56
  TRACK 47 AUDIO
    TITLE "0:"
    INDEX 01 01:01:73
  TRACK 48 AUDIO
    TITLE "22:cjc171_14124"
    INDEX 01 01:02:37
  TRACK 49 AUDIO
    TITLE "0:"
    INDEX 01 01:04:32
  TRACK 50 AUDIO
    TITLE "23:cjc171_14125"
    INDEX 01 01:04:61
  TRACK 51 AUDIO
    TITLE "0:"
    INDEX 01 01:06:56
  TRACK 52 AUDIO
    TITLE "19:cjc171_14126"
    INDEX 01 01:07:62
  TRACK 53 AUDIO
    TITLE "0:"
    INDEX 01 01:08:75
  TRACK 54 AUDIO
    TITLE "20:cjc171_14127"
    INDEX 01 01:09:39
  TRACK 55 AUDIO
    TITLE "0:"
    INDEX 01 01:10:52
  TRACK 56 AUDIO
    TITLE "21:cjc171_14128"
    INDEX 01 01:11:53
  TRACK 57 AUDIO
    TITLE "0:"
    INDEX 01 01:14:11
  TRACK 58 AUDIO
    TITLE "22:cjc171_14129"
    INDEX 01 01:14:50
  TRACK 59 AUDIO
    TITLE "0:"
    INDEX 01 01:16:47
  TRACK 60 AUDIO
    TITLE "23:cjc171_14130"
    INDEX 01 01:16:74
  TRACK 61 AUDIO
    TITLE "0:"
    INDEX 01 01:18:71
  TRACK 62 AUDIO
    TITLE "19:cjc171_14131"
    INDEX 01 01:19:75
  TRACK 63 AUDIO
    TITLE "0:"
    INDEX 01 01:21:15
  TRACK 64 AUDIO
    TITLE "20:cjc171_14132"
    INDEX 01 01:21:54
  TRACK 65 AUDIO
    TITLE "0:"
    INDEX 01 01:24:17
  TRACK 66 AUDIO
    TITLE "21:cjc171_14133"
    INDEX 01 01:25:16
  TRACK 67 AUDIO
    TITLE "0:"
    INDEX 01 01:27:43
  TRACK 68 AUDIO
    TITLE "22:cjc171_14134"
    INDEX 01 01:28:07
  TRACK 69 AUDIO
    TITLE "0:"
    INDEX 01 01:30:19
  TRACK 70 AUDIO
    TITLE "23:cjc171_14135"
    INDEX 01 01:30:49
  TRACK 71 AUDIO
    TITLE "0:"
    INDEX 01 01:32:61
  TRACK 72 AUDIO
    TITLE "19:cjc171_14136"
    INDEX 01 01:33:67
  TRACK 73 AUDIO
    TITLE "0:"
    INDEX 01 01:34:72
  TRACK 74 AUDIO
    TITLE "20:cjc171_14137"
    INDEX 01 01:35:36
  TRACK 75 AUDIO
    TITLE "0:"
    INDEX 01 01:37:16
  TRACK 76 AUDIO
    TITLE "21:cjc171_14138"
    INDEX 01 01:38:15
  TRACK 77 AUDIO
    TITLE "0:"
    INDEX 01 01:40:63
  TRACK 78 AUDIO
    TITLE "22:cjc171_14139"
    INDEX 01 01:41:29
  TRACK 79 AUDIO
    TITLE "0:"
    INDEX 01 01:44:41
  TRACK 80 AUDIO
    TITLE "23:cjc171_14140"
    INDEX 01 01:44:72
  TRACK 81 AUDIO
    TITLE "0:"
    INDEX 01 01:48:08
  TRACK 82 AUDIO
    TITLE "19:cjc171_14141"
    INDEX 01 01:49:15
  TRACK 83 AUDIO
    TITLE "0:"
    INDEX 01 01:50:18
  TRACK 84 AUDIO
    TITLE "20:cjc171_14142"
    INDEX 01 01:50:57
  TRACK 85 AUDIO
    TITLE "0:"
    INDEX 01 01:52:15
  TRACK 86 AUDIO
    TITLE "21:cjc171_14143"
    INDEX 01 01:53:15
  TRACK 87 AUDIO
    TITLE "0:"
    INDEX 01 01:56:03
  TRACK 88 AUDIO
    TITLE "22:cjc171_14144"
    INDEX 01 01:56:42
  TRACK 89 AUDIO
    TITLE "0:"
    INDEX 01 01:59:04
  TRACK 90 AUDIO
    TITLE "23:cjc171_14145"
    INDEX 01 01:59:29
  TRACK 91 AUDIO
    TITLE "0:"
    INDEX 01 02:01:63
  TRACK 92 AUDIO
    TITLE "19:cjc171_14146"
    INDEX 01 02:02:66
  TRACK 93 AUDIO
    TITLE "0:"
    INDEX 01 02:04:26
  TRACK 94 AUDIO
    TITLE "20:cjc171_14147"
    INDEX 01 02:04:65
  TRACK 95 AUDIO
    TITLE "0:"
    INDEX 01 02:08:08
  TRACK 96 AUDIO
    TITLE "21:cjc171_14148"
    INDEX 01 02:09:08
  TRACK 97 AUDIO
    TITLE "0:"
    INDEX 01 02:11:26
  TRACK 98 AUDIO
    TITLE "22:cjc171_14149"
    INDEX 01 02:11:67
  TRACK 99 AUDIO
    TITLE "0:"
    INDEX 01 02:14:38
  TRACK 100 AUDIO
    TITLE "23:cjc171_14150"
    INDEX 01 02:14:70
  TRACK 101 AUDIO
    TITLE "0:"
    INDEX 01 02:17:41
  TRACK 102 AUDIO
    TITLE "19:cjc171_14151"
    INDEX 01 02:18:48
  TRACK 103 AUDIO
    TITLE "0:"
    INDEX 01 02:19:73
  TRACK 104 AUDIO
    TITLE "20:cjc171_14152"
    INDEX 01 02:20:37
  TRACK 105 AUDIO
    TITLE "0:"
    INDEX 01 02:23:49
  TRACK 106 AUDIO
    TITLE "21:cjc171_14153"
    INDEX 01 02:24:52
  TRACK 107 AUDIO
    TITLE "0:"
    INDEX 01 02:26:71
  TRACK 108 AUDIO
    TITLE "22:cjc171_14154"
    INDEX 01 02:27:37
  TRACK 109 AUDIO
    TITLE "0:"
    INDEX 01 02:29:69
  TRACK 110 AUDIO
    TITLE "23:cjc171_14155"
    INDEX 01 02:30:26
  TRACK 111 AUDIO
    TITLE "0:"
    INDEX 01 02:32:56
  TRACK 112 AUDIO
    TITLE "19:cjc171_14156"
    INDEX 01 02:33:59
  TRACK 113 AUDIO
    TITLE "0:"
    INDEX 01 02:35:09
  TRACK 114 AUDIO
    TITLE "20:cjc171_14157"
    INDEX 01 02:35:48
  TRACK 115 AUDIO
    TITLE "0:"
    INDEX 01 02:38:15
  TRACK 116 AUDIO
    TITLE "21:cjc171_14158"
    INDEX 01 02:39:13
  TRACK 117 AUDIO
    TITLE "0:"
    INDEX 01 02:41:31
  TRACK 118 AUDIO
    TITLE "22:cjc171_14159"
    INDEX 01 02:41:69
  TRACK 119 AUDIO
    TITLE "0:"
    INDEX 01 02:44:18
  TRACK 120 AUDIO
    TITLE "23:cjc171_14160"
    INDEX 01 02:44:51
  TRACK 121 AUDIO
    TITLE "0:"
    INDEX 01 02:47:01
  TRACK 122 AUDIO
    TITLE "19:cjc171_14161"
    INDEX 01 02:48:10
  TRACK 123 AUDIO
    TITLE "0:"
    INDEX 01 02:49:25
  TRACK 124 AUDIO
    TITLE "20:cjc171_14162"
    INDEX 01 02:49:62
  TRACK 125 AUDIO
    TITLE "0:"
    INDEX 01 02:52:53
  TRACK 126 AUDIO
    TITLE "21:cjc171_14163"
    INDEX 01 02:53:52
  TRACK 127 AUDIO
    TITLE "0:"
    INDEX 01 02:55:41
  TRACK 128 AUDIO
    TITLE "22:cjc171_14164"
    INDEX 01 02:56:07
  TRACK 129 AUDIO
    TITLE "0:"
    INDEX 01 02:58:02
  TRACK 130 AUDIO
    TITLE "23:cjc171_14165"
    INDEX 01 02:58:32
  TRACK 131 AUDIO
    TITLE "0:"
    INDEX 01 03:00:27
  TRACK 132 AUDIO
    TITLE "19:cjc171_14166"
    INDEX 01 03:01:32
  TRACK 133 AUDIO
    TITLE "0:"
    INDEX 01 03:02:73
  TRACK 134 AUDIO
    TITLE "20:cjc171_14167"
    INDEX 01 03:03:37
  TRACK 135 AUDIO
    TITLE "0:"
    INDEX 01 03:05:40
  TRACK 136 AUDIO
    TITLE "21:cjc171_14168"
    INDEX 01 03:06:37
  TRACK 137 AUDIO
    TITLE "0:"
    INDEX 01 03:08:75
  TRACK 138 AUDIO
    TITLE "22:cjc171_14169"
    INDEX 01 03:09:39
  TRACK 139 AUDIO
    TITLE "0:"
    INDEX 01 03:11:64
  TRACK 140 AUDIO
    TITLE "23:cjc171_14170"
    INDEX 01 03:12:16
  TRACK 141 AUDIO
    TITLE "0:"
    INDEX 01 03:14:43
  TRACK 142 AUDIO
    TITLE "19:cjc171_14171"
    INDEX 01 03:15:44
  TRACK 143 AUDIO
    TITLE "0:"
    INDEX 01 03:17:23
  TRACK 144 AUDIO
    TITLE "20:cjc171_14172"
    INDEX 01 03:17:60
  TRACK 145 AUDIO
    TITLE "0:"
    INDEX 01 03:18:72
  TRACK 146 AUDIO
    TITLE "21:cjc171_14173"
    INDEX 01 03:19:69
  TRACK 147 AUDIO
    TITLE "0:"
    INDEX 01 03:21:29
  TRACK 148 AUDIO
    TITLE "22:cjc171_14174"
    INDEX 01 03:21:68
  TRACK 149 AUDIO
    TITLE "0:"
    INDEX 01 03:24:06
  TRACK 150 AUDIO
    TITLE "23:cjc171_14175"
    INDEX 01 03:24:35
  TRACK 151 AUDIO
    TITLE "0:"
    INDEX 01 03:26:48
  TRACK 152 AUDIO
    TITLE "19:cjc171_14176"
    INDEX 01 03:27:51
  TRACK 153 AUDIO
    TITLE "0:"
    INDEX 01 03:28:64
  TRACK 154 AUDIO
    TITLE "20:cjc171_14177"
    INDEX 01 03:29:26
  TRACK 155 AUDIO
    TITLE "0:"
    INDEX 01 03:30:43
  TRACK 156 AUDIO
    TITLE "21:cjc171_14178"
    INDEX 01 03:31:43
  TRACK 157 AUDIO
    TITLE "0:"
    INDEX 01 03:33:30
  TRACK 158 AUDIO
    TITLE "22:cjc171_14179"
    INDEX 01 03:33:67
  TRACK 159 AUDIO
    TITLE "0:"
    INDEX 01 03:35:58
  TRACK 160 AUDIO
    TITLE "23:cjc171_14180"
    INDEX 01 03:36:07
  TRACK 161 AUDIO
    TITLE "0:"
    INDEX 01 03:37:73
  TRACK 162 AUDIO
    TITLE "19:cjc171_14181"
    INDEX 01 03:39:05
  TRACK 163 AUDIO
    TITLE "0:"
    INDEX 01 03:40:18
  TRACK 164 AUDIO
    TITLE "20:cjc171_14182"
    INDEX 01 03:40:58
  TRACK 165 AUDIO
    TITLE "0:"
    INDEX 01 03:42:68
  TRACK 166 AUDIO
    TITLE "21:cjc171_14183"
    INDEX 01 03:43:68
  TRACK 167 AUDIO
    TITLE "0:"
    INDEX 01 03:45:65
  TRACK 168 AUDIO
    TITLE "22:cjc171_14184"
    INDEX 01 03:46:27
  TRACK 169 AUDIO
    TITLE "0:"
    INDEX 01 03:48:55
  TRACK 170 AUDIO
    TITLE "23:cjc171_14185"
    INDEX 01 03:49:10
  TRACK 171 AUDIO
    TITLE "0:"
    INDEX 01 03:51:38
  TRACK 172 AUDIO
    TITLE "19:cjc171_14186"
    INDEX 01 03:52:43
  TRACK 173 AUDIO
    TITLE "0:"
    INDEX 01 03:53:50
  TRACK 174 AUDIO
    TITLE "20:cjc171_14187"
    INDEX 01 03:54:19
  TRACK 175 AUDIO
    TITLE "0:"
    INDEX 01 03:56:47
  TRACK 176 AUDIO
    TITLE "21:cjc171_14188"
    INDEX 01 03:57:48
  TRACK 177 AUDIO
    TITLE "0:"
    INDEX 01 04:00:15
  TRACK 178 AUDIO
    TITLE "22:cjc171_14189"
    INDEX 01 04:00:54
  TRACK 179 AUDIO
    TITLE "0:"
    INDEX 01 04:03:12
  TRACK 180 AUDIO
    TITLE "23:cjc171_14190"
    INDEX 01 04:03:39
  TRACK 181 AUDIO
    TITLE "0:"
    INDEX 01 04:05:71
  TRACK 182 AUDIO
    TITLE "19:cjc171_14191"
    INDEX 01 04:06:75
  TRACK 183 AUDIO
    TITLE "0:"
    INDEX 01 04:08:17
  TRACK 184 AUDIO
    TITLE "20:cjc171_14192"
    INDEX 01 04:08:54
  TRACK 185 AUDIO
    TITLE "0:"
    INDEX 01 04:11:29
  TRACK 186 AUDIO
    TITLE "21:cjc171_14193"
    INDEX 01 04:12:28
  TRACK 187 AUDIO
    TITLE "0:"
    INDEX 01 04:14:41
  TRACK 188 AUDIO
    TITLE "22:cjc171_14194"
    INDEX 01 04:14:74
  TRACK 189 AUDIO
    TITLE "0:"
    INDEX 01 04:17:21
  TRACK 190 AUDIO
    TITLE "23:cjc171_14195"
    INDEX 01 04:17:43
  TRACK 191 AUDIO
    TITLE "0:"
    INDEX 01 04:19:63
  TRACK 192 AUDIO
    TITLE "19:cjc171_14196"
    INDEX 01 04:20:65
  TRACK 193 AUDIO
    TITLE "0:"
    INDEX 01 04:22:23
  TRACK 194 AUDIO
    TITLE "20:cjc171_14197"
    INDEX 01 04:22:62
  TRACK 195 AUDIO
    TITLE "0:"
    INDEX 01 04:25:68
  TRACK 196 AUDIO
    TITLE "21:cjc171_14198"
    INDEX 01 04:26:69
  TRACK 197 AUDIO
    TITLE "0:"
    INDEX 01 04:29:60
  TRACK 198 AUDIO
    TITLE "22:cjc171_14199"
    INDEX 01 04:30:24
  TRACK 199 AUDIO
    TITLE "0:"
    INDEX 01 04:32:48
  TRACK 200 AUDIO
    TITLE "23:cjc171_14200"
    INDEX 01 04:32:74
  TRACK 201 AUDIO
    TITLE "0:"
    INDEX 01 04:35:21
